<mxfile host="app.diagrams.net" modified="2024-03-20T02:46:28.440Z" agent="Mozilla/5.0 (Windows NT 10.0; Win64; x64) AppleWebKit/537.36 (KHTML, like Gecko) Chrome/122.0.0.0 Safari/537.36 Edg/122.0.0.0" etag="nXhWuxrfbkEcU45vCvc4" version="24.0.7" type="github">
  <diagram name="第 1 页" id="ko8dxdMfopT1l5Szj1cy">
    <mxGraphModel dx="721" dy="408" grid="1" gridSize="10" guides="1" tooltips="1" connect="1" arrows="1" fold="1" page="0" pageScale="1" pageWidth="827" pageHeight="1169" math="1" shadow="0">
      <root>
        <mxCell id="0" />
        <mxCell id="1" parent="0" />
        <mxCell id="a9bHBnDwfTpr2ZN-U5zs-1" value="维度：`d`" style="rounded=0;whiteSpace=wrap;html=1;fillColor=#dae8fc;strokeColor=#6c8ebf;" parent="1" vertex="1">
          <mxGeometry x="160" y="110" width="120" height="20" as="geometry" />
        </mxCell>
        <mxCell id="J7nnL09ew9Uz0KNJ4J_C-1" value="维度：`d`" style="rounded=0;whiteSpace=wrap;html=1;fillColor=#dae8fc;strokeColor=#6c8ebf;" parent="1" vertex="1">
          <mxGeometry x="160" y="330" width="120" height="20" as="geometry" />
        </mxCell>
        <mxCell id="J7nnL09ew9Uz0KNJ4J_C-4" value="预训练权重&lt;div&gt;$$W \in R^{d\times d}$$&lt;/div&gt;" style="whiteSpace=wrap;html=1;aspect=fixed;" parent="1" vertex="1">
          <mxGeometry x="110" y="190" width="90" height="90" as="geometry" />
        </mxCell>
        <mxCell id="J7nnL09ew9Uz0KNJ4J_C-7" value="" style="shape=trapezoid;perimeter=trapezoidPerimeter;whiteSpace=wrap;html=1;fixedSize=1;rotation=-180;" parent="1" vertex="1">
          <mxGeometry x="244" y="190" width="94" height="30" as="geometry" />
        </mxCell>
        <mxCell id="J7nnL09ew9Uz0KNJ4J_C-8" value="" style="shape=trapezoid;perimeter=trapezoidPerimeter;whiteSpace=wrap;html=1;fixedSize=1;rotation=0;" parent="1" vertex="1">
          <mxGeometry x="244" y="250" width="96" height="30" as="geometry" />
        </mxCell>
        <mxCell id="J7nnL09ew9Uz0KNJ4J_C-9" value="隐藏层" style="text;html=1;align=center;verticalAlign=middle;resizable=0;points=[];autosize=1;strokeColor=none;fillColor=none;" parent="1" vertex="1">
          <mxGeometry x="190" y="80" width="60" height="30" as="geometry" />
        </mxCell>
        <mxCell id="J7nnL09ew9Uz0KNJ4J_C-10" value="隐藏层" style="text;html=1;align=center;verticalAlign=middle;resizable=0;points=[];autosize=1;strokeColor=none;fillColor=none;" parent="1" vertex="1">
          <mxGeometry x="190" y="350" width="60" height="30" as="geometry" />
        </mxCell>
        <mxCell id="J7nnL09ew9Uz0KNJ4J_C-20" value="" style="endArrow=classic;html=1;rounded=0;" parent="1" edge="1">
          <mxGeometry width="50" height="50" relative="1" as="geometry">
            <mxPoint x="205" y="320" as="sourcePoint" />
            <mxPoint x="175" y="290" as="targetPoint" />
          </mxGeometry>
        </mxCell>
        <mxCell id="J7nnL09ew9Uz0KNJ4J_C-21" value="" style="endArrow=classic;html=1;rounded=0;" parent="1" edge="1">
          <mxGeometry width="50" height="50" relative="1" as="geometry">
            <mxPoint x="235" y="320" as="sourcePoint" />
            <mxPoint x="265" y="290" as="targetPoint" />
          </mxGeometry>
        </mxCell>
        <mxCell id="J7nnL09ew9Uz0KNJ4J_C-22" value="" style="endArrow=classic;html=1;rounded=0;" parent="1" edge="1">
          <mxGeometry width="50" height="50" relative="1" as="geometry">
            <mxPoint x="175" y="180" as="sourcePoint" />
            <mxPoint x="205" y="150" as="targetPoint" />
          </mxGeometry>
        </mxCell>
        <mxCell id="J7nnL09ew9Uz0KNJ4J_C-23" value="" style="endArrow=classic;html=1;rounded=0;" parent="1" edge="1">
          <mxGeometry width="50" height="50" relative="1" as="geometry">
            <mxPoint x="265" y="180" as="sourcePoint" />
            <mxPoint x="235" y="150" as="targetPoint" />
          </mxGeometry>
        </mxCell>
        <mxCell id="J7nnL09ew9Uz0KNJ4J_C-24" value="" style="html=1;verticalLabelPosition=bottom;align=center;labelBackgroundColor=#ffffff;verticalAlign=top;strokeWidth=2;strokeColor=#0080F0;shadow=0;dashed=0;shape=mxgraph.ios7.icons.add;" parent="1" vertex="1">
          <mxGeometry x="205" y="140" width="30" height="30" as="geometry" />
        </mxCell>
        <mxCell id="J7nnL09ew9Uz0KNJ4J_C-25" value="`B=0`" style="text;html=1;align=center;verticalAlign=middle;resizable=0;points=[];autosize=1;strokeColor=none;fillColor=none;" parent="1" vertex="1">
          <mxGeometry x="262" y="190" width="50" height="30" as="geometry" />
        </mxCell>
        <mxCell id="J7nnL09ew9Uz0KNJ4J_C-26" value="`A=N(0, \sigma)`" style="text;html=1;align=center;verticalAlign=middle;resizable=0;points=[];autosize=1;strokeColor=none;fillColor=none;" parent="1" vertex="1">
          <mxGeometry x="236" y="250" width="110" height="30" as="geometry" />
        </mxCell>
        <mxCell id="G4H1IT1NFjW53YLsef4--2" value="" style="edgeStyle=none;orthogonalLoop=1;jettySize=auto;html=1;endArrow=openThin;startArrow=openThin;endSize=8;startSize=8;rounded=0;strokeWidth=1;startFill=0;endFill=0;" edge="1" parent="1">
          <mxGeometry width="100" relative="1" as="geometry">
            <mxPoint x="261" y="244.76" as="sourcePoint" />
            <mxPoint x="321" y="244.76" as="targetPoint" />
            <Array as="points" />
          </mxGeometry>
        </mxCell>
        <mxCell id="G4H1IT1NFjW53YLsef4--3" value="`r`" style="text;html=1;align=center;verticalAlign=middle;resizable=0;points=[];autosize=1;strokeColor=none;fillColor=none;strokeWidth=0;dashed=1;" vertex="1" parent="1">
          <mxGeometry x="271" y="220" width="40" height="30" as="geometry" />
        </mxCell>
      </root>
    </mxGraphModel>
  </diagram>
</mxfile>
